#N canvas 379 23 1061 719 12;
#X declare -path ../weighted_mode_player;
#X obj 105 448 dac~;
#X obj 105 422 *~ 0.75;
#X msg 151 393 0;
#X msg 187 393 0.75;
#X obj 288 39 tgl 15 0 empty empty empty 17 7 0 10 -262144 -1 -1 0
1;
#X obj 435 175 s \$0-notes;
#X obj 435 84 weighted_mode_player;
#X msg 376 33 400;
#X msg 511 49 60;
#X msg 546 49 70;
#N canvas 0 23 398 482 vel_player 0;
#X floatatom 85 334 5 0 0 0 - - -;
#X obj 85 159 > 127;
#X obj 85 186 sel 1;
#X msg 85 214 0;
#X obj 117 304 *;
#X msg 117 274 1;
#X obj 117 246 t b;
#X obj 85 69 metro 400;
#X obj 176 121 random 300;
#X obj 85 121 random 127;
#X obj 176 144 + 10;
#X obj 85 36 inlet;
#X obj 85 369 outlet;
#X obj 176 369 outlet;
#X obj 145 36 inlet;
#X connect 0 0 12 0;
#X connect 1 0 2 0;
#X connect 2 0 3 0;
#X connect 2 1 6 0;
#X connect 3 0 0 0;
#X connect 4 0 0 0;
#X connect 5 0 4 0;
#X connect 6 0 5 0;
#X connect 7 0 8 0;
#X connect 7 0 9 0;
#X connect 8 0 10 0;
#X connect 9 0 1 0;
#X connect 9 0 4 1;
#X connect 10 0 13 0;
#X connect 11 0 7 0;
#X connect 14 0 7 1;
#X restore 288 64 pd vel_player;
#X floatatom 288 92 5 0 0 0 - - -;
#X floatatom 376 92 5 0 0 0 - - -;
#X obj 588 51 tgl 15 0 empty empty empty 17 7 0 10 -262144 -1 -1 0
1;
#X obj 55 176 string_synth, f 20;
#X floatatom 55 149 5 0 0 0 - - -;
#X obj 55 121 r \$0-notes;
#X msg 109 149 100;
#X msg 164 149 200;
#X obj 145 122 bng 15 250 50 0 empty empty empty 17 7 0 10 -262144
-1 -1;
#X obj 686 50 declare -path ../weighted_mode_player;
#X connect 1 0 0 0;
#X connect 1 0 0 1;
#X connect 2 0 1 1;
#X connect 3 0 1 1;
#X connect 4 0 10 0;
#X connect 6 0 5 0;
#X connect 7 0 6 0;
#X connect 7 0 10 1;
#X connect 8 0 6 1;
#X connect 9 0 6 1;
#X connect 10 0 11 0;
#X connect 10 0 14 1;
#X connect 10 1 12 0;
#X connect 10 1 14 2;
#X connect 13 0 6 2;
#X connect 14 0 1 0;
#X connect 15 0 14 0;
#X connect 16 0 15 0;
#X connect 17 0 14 1;
#X connect 18 0 14 2;
#X connect 19 0 17 0;
#X connect 19 0 18 0;
