#N canvas 1 182 714 559 12;
#X obj 84 47 inlet;
#X obj 84 458 outlet~;
#X obj 84 130 mtof;
#N canvas 29 23 563 586 string_voice 0;
#X obj 84 263 phasor~;
#X obj 84 293 expr~ $v1 > $v2;
#X obj 186 242 *~ 0.4;
#X obj 186 265 +~ 0.5;
#X obj 186 219 osc~ 2.1;
#X obj 84 119 sig~;
#X obj 84 201 +~;
#X obj 102 170 *~ 3;
#X obj 102 147 osc~ 5;
#X floatatom 84 95 5 0 0 0 - - -;
#X obj 84 63 inlet;
#X obj 84 324 outlet~;
#X obj 269 64 loadbang;
#X obj 269 87 random 1000;
#X obj 269 110 * 0.002;
#X obj 269 133 + 1;
#X obj 169 54 loadbang;
#X obj 169 77 random 1000;
#X obj 169 123 + 1;
#X obj 169 100 * 0.005;
#X connect 0 0 1 0;
#X connect 1 0 11 0;
#X connect 2 0 3 0;
#X connect 3 0 1 1;
#X connect 4 0 2 0;
#X connect 5 0 6 0;
#X connect 6 0 0 0;
#X connect 7 0 6 1;
#X connect 8 0 7 0;
#X connect 9 0 5 0;
#X connect 10 0 9 0;
#X connect 12 0 13 0;
#X connect 13 0 14 0;
#X connect 14 0 15 0;
#X connect 15 0 4 0;
#X connect 16 0 17 0;
#X connect 17 0 19 0;
#X connect 18 0 8 0;
#X connect 19 0 18 0;
#X restore 84 203 pd string_voice;
#X obj 84 406 *~;
#X obj 84 83 unpack f f;
#N canvas 782 23 544 501 ar_env 0;
#X obj 138 134 sel 0;
#X text 188 134 note on or note off;
#X msg 138 157 0;
#X obj 170 209 / 127;
#X obj 170 232 pack 0 400;
#X floatatom 237 204 5 0 0 0 - - -;
#X text 278 203 attack time;
#X floatatom 214 274 5 0 0 0 - - -;
#X text 255 273 release time;
#X obj 140 325 line~;
#X obj 140 350 *~;
#X obj 140 302 pack 0 2000;
#X obj 138 73 inlet;
#X obj 140 387 outlet~;
#X obj 193 74 inlet;
#X obj 247 74 inlet;
#X connect 0 0 2 0;
#X connect 0 1 3 0;
#X connect 2 0 11 0;
#X connect 3 0 4 0;
#X connect 4 0 9 0;
#X connect 5 0 4 1;
#X connect 7 0 11 1;
#X connect 9 0 10 0;
#X connect 9 0 10 1;
#X connect 10 0 13 0;
#X connect 11 0 9 0;
#X connect 12 0 0 0;
#X connect 14 0 5 0;
#X connect 15 0 7 0;
#X restore 357 173 pd ar_env;
#N canvas 29 23 563 586 string_voice 0;
#X obj 84 263 phasor~;
#X obj 84 293 expr~ $v1 > $v2;
#X obj 186 242 *~ 0.4;
#X obj 186 265 +~ 0.5;
#X obj 186 219 osc~ 2.1;
#X obj 84 119 sig~;
#X obj 84 201 +~;
#X obj 102 170 *~ 3;
#X obj 102 147 osc~ 5;
#X floatatom 84 95 5 0 0 0 - - -;
#X obj 84 63 inlet;
#X obj 84 324 outlet~;
#X obj 269 64 loadbang;
#X obj 269 87 random 1000;
#X obj 269 110 * 0.002;
#X obj 269 133 + 1;
#X obj 169 54 loadbang;
#X obj 169 77 random 1000;
#X obj 169 123 + 1;
#X obj 169 100 * 0.005;
#X connect 0 0 1 0;
#X connect 1 0 11 0;
#X connect 2 0 3 0;
#X connect 3 0 1 1;
#X connect 4 0 2 0;
#X connect 5 0 6 0;
#X connect 6 0 0 0;
#X connect 7 0 6 1;
#X connect 8 0 7 0;
#X connect 9 0 5 0;
#X connect 10 0 9 0;
#X connect 12 0 13 0;
#X connect 13 0 14 0;
#X connect 14 0 15 0;
#X connect 15 0 4 0;
#X connect 16 0 17 0;
#X connect 17 0 19 0;
#X connect 18 0 8 0;
#X connect 19 0 18 0;
#X restore 199 203 pd string_voice;
#X obj 84 429 lop~ 5000;
#X obj 144 400 * 10;
#X text 179 400 filter cutoff relative to the note;
#X floatatom 217 154 5 0 0 0 - - -;
#X obj 199 179 *;
#X obj 217 71 loadbang;
#X msg 217 94 1.006;
#X obj 357 16 r all_string_oscs_params;
#X obj 357 39 unpack f f f f f;
#X connect 0 0 5 0;
#X connect 2 0 3 0;
#X connect 2 0 9 0;
#X connect 2 0 12 0;
#X connect 3 0 4 0;
#X connect 4 0 8 0;
#X connect 5 0 2 0;
#X connect 5 1 6 0;
#X connect 6 0 4 1;
#X connect 7 0 4 0;
#X connect 8 0 1 0;
#X connect 9 0 8 1;
#X connect 11 0 12 1;
#X connect 12 0 7 0;
#X connect 13 0 14 0;
#X connect 14 0 11 0;
#X connect 15 0 16 0;
#X connect 16 0 6 0;
#X connect 16 1 11 0;
#X connect 16 2 6 1;
#X connect 16 3 6 2;
#X connect 16 4 9 1;
