#N canvas 23 33 1012 760 12;
#X obj 45 129 clone string_synth_osc.cl 16;
#X obj 45 78 pack 0 0;
#N canvas 0 23 450 300 routing 0;
#X obj 100 89 poly 16 1;
#X obj 100 142 pack 0 0 0;
#X obj 100 114 - 1;
#X obj 100 62 inlet;
#X obj 100 171 outlet;
#X connect 0 0 2 0;
#X connect 0 1 1 1;
#X connect 0 2 1 2;
#X connect 1 0 4 0;
#X connect 2 0 1 0;
#X connect 3 0 0 0;
#X restore 45 104 pd routing;
#X obj 45 55 makenote 100 200;
#X obj 45 30 inlet;
#X obj 99 30 inlet;
#X obj 154 30 inlet;
#X obj 45 154 outlet~;
#X obj 340 568 s all_string_oscs_params;
#X msg 351 542 10 1.004 400 2000 10;
#X obj 280 238 vsl 15 100 0 2 0 1 empty \$0-detune detune 0 -9 0 10
-262144 -1 -1 4980 1;
#X floatatom 280 346 8 0 0 0 - - -;
#X obj 350 238 vsl 15 100 0 1000 0 1 empty \$0-attack attack 0 -9 0
10 -262144 -1 -1 3960 1;
#X floatatom 350 346 8 0 0 0 - - -;
#X obj 420 238 vsl 15 100 0 10000 0 1 empty \$0-release release 0 -9
0 10 -262144 -1 -1 1980 1;
#X floatatom 420 346 8 0 0 0 - - -;
#X obj 340 459 t b;
#X obj 489 238 vsl 15 100 0 20 0 1 empty \$0-cutoff_mul cutoff_mul
0 -9 0 10 -262144 -1 -1 4950 1;
#X floatatom 489 346 8 0 20 0 - - -;
#X obj 340 488 pack f f f f;
#X msg 340 517 10 \$1 \$2 \$3 \$4;
#X obj 280 30 inlet;
#X obj 350 30 inlet;
#X obj 420 30 inlet;
#X obj 489 30 inlet;
#X obj 717 287 sel 0 1 2 3 4 5 6 7;
#X obj 280 376 hradio 15 1 0 8 empty empty empty 0 -8 0 10 -262144
-1 -1 0;
#X msg 717 345 \; \$5-\$1 1.006 \; \$5-\$2 400 \; \$5-\$3 2000 \; \$5-\$4
10;
#X msg 855 345 \; \$5-\$1 2 \; \$5-\$2 200 \; \$5-\$3 3000 \; \$5-\$4
10;
#X msg 717 450 \; \$5-\$1 2 \; \$5-\$2 0 \; \$5-\$3 3000 \; \$5-\$4
10;
#X msg 855 450 \; \$5-\$1 1.008 \; \$5-\$2 0 \; \$5-\$3 300 \; \$5-\$4
2;
#X msg 717 554 \; \$5-\$1 0.5 \; \$5-\$2 20 \; \$5-\$3 2000 \; \$5-\$4
20;
#X msg 855 553 \; \$5-\$1 1.5 \; \$5-\$2 60 \; \$5-\$3 500 \; \$5-\$4
10;
#X msg 717 659 \; \$5-\$1 0.5 \; \$5-\$2 100 \; \$5-\$3 2400 \; \$5-\$4
5;
#N canvas 0 23 456 391 preset_setup 0;
#X obj 71 18 inlet;
#X obj 71 250 outlet;
#N canvas 369 23 508 476 param_setup 0;
#X obj 138 370 f \$0;
#X obj 106 413 list append;
#X obj 106 341 t l b;
#X symbolatom 187 163 10 0 0 0 - - -;
#X symbolatom 187 201 10 0 0 0 - - -;
#X symbolatom 187 238 10 0 0 0 - - -;
#X obj 117 57 bng 15 250 50 0 empty empty empty 17 7 0 10 -262144 -1
-1;
#X obj 117 32 inlet;
#X obj 222 32 inlet;
#X obj 276 32 inlet;
#X obj 330 32 inlet;
#X obj 352 122 symbol p1;
#X obj 352 172 symbol p2;
#X obj 352 222 symbol p3;
#X obj 106 439 outlet;
#X obj 352 272 symbol p4;
#X obj 383 32 inlet;
#X obj 117 80 t b b b b b b b;
#X symbolatom 187 272 10 0 0 0 - - -;
#X obj 106 311 pack s s s s;
#X connect 0 0 1 1;
#X connect 1 0 14 0;
#X connect 2 0 1 0;
#X connect 2 1 0 0;
#X connect 3 0 19 0;
#X connect 4 0 19 1;
#X connect 5 0 19 2;
#X connect 6 0 17 0;
#X connect 7 0 6 0;
#X connect 8 0 11 1;
#X connect 9 0 12 1;
#X connect 10 0 13 1;
#X connect 11 0 3 0;
#X connect 12 0 4 0;
#X connect 13 0 5 0;
#X connect 15 0 18 0;
#X connect 16 0 15 1;
#X connect 17 0 3 0;
#X connect 17 1 4 0;
#X connect 17 2 5 0;
#X connect 17 3 11 0;
#X connect 17 4 12 0;
#X connect 17 5 13 0;
#X connect 17 6 15 0;
#X connect 18 0 19 3;
#X connect 19 0 2 0;
#X restore 71 197 pd param_setup;
#X obj 99 48 loadbang;
#X obj 71 223 list append;
#X msg 146 76 symbol detune;
#X msg 156 106 symbol attack;
#X msg 166 136 symbol release;
#X msg 186 166 symbol cutoff_mul;
#X connect 0 0 2 0;
#X connect 2 0 4 0;
#X connect 3 0 5 0;
#X connect 3 0 6 0;
#X connect 3 0 7 0;
#X connect 3 0 8 0;
#X connect 4 0 1 0;
#X connect 5 0 2 1;
#X connect 6 0 2 2;
#X connect 7 0 2 3;
#X connect 8 0 2 4;
#X restore 717 319 pd preset_setup;
#N canvas 0 23 456 391 preset_setup 0;
#X obj 71 18 inlet;
#X obj 71 250 outlet;
#N canvas 369 23 508 476 param_setup 0;
#X obj 138 370 f \$0;
#X obj 106 413 list append;
#X obj 106 341 t l b;
#X symbolatom 187 163 10 0 0 0 - - -;
#X symbolatom 187 201 10 0 0 0 - - -;
#X symbolatom 187 238 10 0 0 0 - - -;
#X obj 117 57 bng 15 250 50 0 empty empty empty 17 7 0 10 -262144 -1
-1;
#X obj 117 32 inlet;
#X obj 222 32 inlet;
#X obj 276 32 inlet;
#X obj 330 32 inlet;
#X obj 352 122 symbol p1;
#X obj 352 172 symbol p2;
#X obj 352 222 symbol p3;
#X obj 106 439 outlet;
#X obj 352 272 symbol p4;
#X obj 383 32 inlet;
#X obj 117 80 t b b b b b b b;
#X symbolatom 187 272 10 0 0 0 - - -;
#X obj 106 311 pack s s s s;
#X connect 0 0 1 1;
#X connect 1 0 14 0;
#X connect 2 0 1 0;
#X connect 2 1 0 0;
#X connect 3 0 19 0;
#X connect 4 0 19 1;
#X connect 5 0 19 2;
#X connect 6 0 17 0;
#X connect 7 0 6 0;
#X connect 8 0 11 1;
#X connect 9 0 12 1;
#X connect 10 0 13 1;
#X connect 11 0 3 0;
#X connect 12 0 4 0;
#X connect 13 0 5 0;
#X connect 15 0 18 0;
#X connect 16 0 15 1;
#X connect 17 0 3 0;
#X connect 17 1 4 0;
#X connect 17 2 5 0;
#X connect 17 3 11 0;
#X connect 17 4 12 0;
#X connect 17 5 13 0;
#X connect 17 6 15 0;
#X connect 18 0 19 3;
#X connect 19 0 2 0;
#X restore 71 197 pd param_setup;
#X obj 99 48 loadbang;
#X obj 71 223 list append;
#X msg 146 76 symbol detune;
#X msg 156 106 symbol attack;
#X msg 166 136 symbol release;
#X msg 186 166 symbol cutoff_mul;
#X connect 0 0 2 0;
#X connect 2 0 4 0;
#X connect 3 0 5 0;
#X connect 3 0 6 0;
#X connect 3 0 7 0;
#X connect 3 0 8 0;
#X connect 4 0 1 0;
#X connect 5 0 2 1;
#X connect 6 0 2 2;
#X connect 7 0 2 3;
#X connect 8 0 2 4;
#X restore 717 424 pd preset_setup;
#N canvas 0 23 456 391 preset_setup 0;
#X obj 71 18 inlet;
#X obj 71 250 outlet;
#N canvas 369 23 508 476 param_setup 0;
#X obj 138 370 f \$0;
#X obj 106 413 list append;
#X obj 106 341 t l b;
#X symbolatom 187 163 10 0 0 0 - - -;
#X symbolatom 187 201 10 0 0 0 - - -;
#X symbolatom 187 238 10 0 0 0 - - -;
#X obj 117 57 bng 15 250 50 0 empty empty empty 17 7 0 10 -262144 -1
-1;
#X obj 117 32 inlet;
#X obj 222 32 inlet;
#X obj 276 32 inlet;
#X obj 330 32 inlet;
#X obj 352 122 symbol p1;
#X obj 352 172 symbol p2;
#X obj 352 222 symbol p3;
#X obj 106 439 outlet;
#X obj 352 272 symbol p4;
#X obj 383 32 inlet;
#X obj 117 80 t b b b b b b b;
#X symbolatom 187 272 10 0 0 0 - - -;
#X obj 106 311 pack s s s s;
#X connect 0 0 1 1;
#X connect 1 0 14 0;
#X connect 2 0 1 0;
#X connect 2 1 0 0;
#X connect 3 0 19 0;
#X connect 4 0 19 1;
#X connect 5 0 19 2;
#X connect 6 0 17 0;
#X connect 7 0 6 0;
#X connect 8 0 11 1;
#X connect 9 0 12 1;
#X connect 10 0 13 1;
#X connect 11 0 3 0;
#X connect 12 0 4 0;
#X connect 13 0 5 0;
#X connect 15 0 18 0;
#X connect 16 0 15 1;
#X connect 17 0 3 0;
#X connect 17 1 4 0;
#X connect 17 2 5 0;
#X connect 17 3 11 0;
#X connect 17 4 12 0;
#X connect 17 5 13 0;
#X connect 17 6 15 0;
#X connect 18 0 19 3;
#X connect 19 0 2 0;
#X restore 71 197 pd param_setup;
#X obj 99 48 loadbang;
#X obj 71 223 list append;
#X msg 146 76 symbol detune;
#X msg 156 106 symbol attack;
#X msg 166 136 symbol release;
#X msg 186 166 symbol cutoff_mul;
#X connect 0 0 2 0;
#X connect 2 0 4 0;
#X connect 3 0 5 0;
#X connect 3 0 6 0;
#X connect 3 0 7 0;
#X connect 3 0 8 0;
#X connect 4 0 1 0;
#X connect 5 0 2 1;
#X connect 6 0 2 2;
#X connect 7 0 2 3;
#X connect 8 0 2 4;
#X restore 717 528 pd preset_setup;
#N canvas 0 23 456 391 preset_setup 0;
#X obj 71 18 inlet;
#X obj 71 250 outlet;
#N canvas 369 23 508 476 param_setup 0;
#X obj 138 370 f \$0;
#X obj 106 413 list append;
#X obj 106 341 t l b;
#X symbolatom 187 163 10 0 0 0 - - -;
#X symbolatom 187 201 10 0 0 0 - - -;
#X symbolatom 187 238 10 0 0 0 - - -;
#X obj 117 57 bng 15 250 50 0 empty empty empty 17 7 0 10 -262144 -1
-1;
#X obj 117 32 inlet;
#X obj 222 32 inlet;
#X obj 276 32 inlet;
#X obj 330 32 inlet;
#X obj 352 122 symbol p1;
#X obj 352 172 symbol p2;
#X obj 352 222 symbol p3;
#X obj 106 439 outlet;
#X obj 352 272 symbol p4;
#X obj 383 32 inlet;
#X obj 117 80 t b b b b b b b;
#X symbolatom 187 272 10 0 0 0 - - -;
#X obj 106 311 pack s s s s;
#X connect 0 0 1 1;
#X connect 1 0 14 0;
#X connect 2 0 1 0;
#X connect 2 1 0 0;
#X connect 3 0 19 0;
#X connect 4 0 19 1;
#X connect 5 0 19 2;
#X connect 6 0 17 0;
#X connect 7 0 6 0;
#X connect 8 0 11 1;
#X connect 9 0 12 1;
#X connect 10 0 13 1;
#X connect 11 0 3 0;
#X connect 12 0 4 0;
#X connect 13 0 5 0;
#X connect 15 0 18 0;
#X connect 16 0 15 1;
#X connect 17 0 3 0;
#X connect 17 1 4 0;
#X connect 17 2 5 0;
#X connect 17 3 11 0;
#X connect 17 4 12 0;
#X connect 17 5 13 0;
#X connect 17 6 15 0;
#X connect 18 0 19 3;
#X connect 19 0 2 0;
#X restore 71 197 pd param_setup;
#X obj 99 48 loadbang;
#X obj 71 223 list append;
#X msg 146 76 symbol detune;
#X msg 156 106 symbol attack;
#X msg 166 136 symbol release;
#X msg 186 166 symbol cutoff_mul;
#X connect 0 0 2 0;
#X connect 2 0 4 0;
#X connect 3 0 5 0;
#X connect 3 0 6 0;
#X connect 3 0 7 0;
#X connect 3 0 8 0;
#X connect 4 0 1 0;
#X connect 5 0 2 1;
#X connect 6 0 2 2;
#X connect 7 0 2 3;
#X connect 8 0 2 4;
#X restore 717 633 pd preset_setup;
#N canvas 0 23 456 391 preset_setup 0;
#X obj 71 18 inlet;
#X obj 71 250 outlet;
#N canvas 369 23 508 476 param_setup 0;
#X obj 138 370 f \$0;
#X obj 106 413 list append;
#X obj 106 341 t l b;
#X symbolatom 187 163 10 0 0 0 - - -;
#X symbolatom 187 201 10 0 0 0 - - -;
#X symbolatom 187 238 10 0 0 0 - - -;
#X obj 117 57 bng 15 250 50 0 empty empty empty 17 7 0 10 -262144 -1
-1;
#X obj 117 32 inlet;
#X obj 222 32 inlet;
#X obj 276 32 inlet;
#X obj 330 32 inlet;
#X obj 352 122 symbol p1;
#X obj 352 172 symbol p2;
#X obj 352 222 symbol p3;
#X obj 106 439 outlet;
#X obj 352 272 symbol p4;
#X obj 383 32 inlet;
#X obj 117 80 t b b b b b b b;
#X symbolatom 187 272 10 0 0 0 - - -;
#X obj 106 311 pack s s s s;
#X connect 0 0 1 1;
#X connect 1 0 14 0;
#X connect 2 0 1 0;
#X connect 2 1 0 0;
#X connect 3 0 19 0;
#X connect 4 0 19 1;
#X connect 5 0 19 2;
#X connect 6 0 17 0;
#X connect 7 0 6 0;
#X connect 8 0 11 1;
#X connect 9 0 12 1;
#X connect 10 0 13 1;
#X connect 11 0 3 0;
#X connect 12 0 4 0;
#X connect 13 0 5 0;
#X connect 15 0 18 0;
#X connect 16 0 15 1;
#X connect 17 0 3 0;
#X connect 17 1 4 0;
#X connect 17 2 5 0;
#X connect 17 3 11 0;
#X connect 17 4 12 0;
#X connect 17 5 13 0;
#X connect 17 6 15 0;
#X connect 18 0 19 3;
#X connect 19 0 2 0;
#X restore 71 197 pd param_setup;
#X obj 99 48 loadbang;
#X obj 71 223 list append;
#X msg 146 76 symbol detune;
#X msg 156 106 symbol attack;
#X msg 166 136 symbol release;
#X msg 186 166 symbol cutoff_mul;
#X connect 0 0 2 0;
#X connect 2 0 4 0;
#X connect 3 0 5 0;
#X connect 3 0 6 0;
#X connect 3 0 7 0;
#X connect 3 0 8 0;
#X connect 4 0 1 0;
#X connect 5 0 2 1;
#X connect 6 0 2 2;
#X connect 7 0 2 3;
#X connect 8 0 2 4;
#X restore 855 319 pd preset_setup;
#N canvas 0 23 456 391 preset_setup 0;
#X obj 71 18 inlet;
#X obj 71 250 outlet;
#N canvas 369 23 508 476 param_setup 0;
#X obj 138 370 f \$0;
#X obj 106 413 list append;
#X obj 106 341 t l b;
#X symbolatom 187 163 10 0 0 0 - - -;
#X symbolatom 187 201 10 0 0 0 - - -;
#X symbolatom 187 238 10 0 0 0 - - -;
#X obj 117 57 bng 15 250 50 0 empty empty empty 17 7 0 10 -262144 -1
-1;
#X obj 117 32 inlet;
#X obj 222 32 inlet;
#X obj 276 32 inlet;
#X obj 330 32 inlet;
#X obj 352 122 symbol p1;
#X obj 352 172 symbol p2;
#X obj 352 222 symbol p3;
#X obj 106 439 outlet;
#X obj 352 272 symbol p4;
#X obj 383 32 inlet;
#X obj 117 80 t b b b b b b b;
#X symbolatom 187 272 10 0 0 0 - - -;
#X obj 106 311 pack s s s s;
#X connect 0 0 1 1;
#X connect 1 0 14 0;
#X connect 2 0 1 0;
#X connect 2 1 0 0;
#X connect 3 0 19 0;
#X connect 4 0 19 1;
#X connect 5 0 19 2;
#X connect 6 0 17 0;
#X connect 7 0 6 0;
#X connect 8 0 11 1;
#X connect 9 0 12 1;
#X connect 10 0 13 1;
#X connect 11 0 3 0;
#X connect 12 0 4 0;
#X connect 13 0 5 0;
#X connect 15 0 18 0;
#X connect 16 0 15 1;
#X connect 17 0 3 0;
#X connect 17 1 4 0;
#X connect 17 2 5 0;
#X connect 17 3 11 0;
#X connect 17 4 12 0;
#X connect 17 5 13 0;
#X connect 17 6 15 0;
#X connect 18 0 19 3;
#X connect 19 0 2 0;
#X restore 71 197 pd param_setup;
#X obj 99 48 loadbang;
#X obj 71 223 list append;
#X msg 146 76 symbol detune;
#X msg 156 106 symbol attack;
#X msg 166 136 symbol release;
#X msg 186 166 symbol cutoff_mul;
#X connect 0 0 2 0;
#X connect 2 0 4 0;
#X connect 3 0 5 0;
#X connect 3 0 6 0;
#X connect 3 0 7 0;
#X connect 3 0 8 0;
#X connect 4 0 1 0;
#X connect 5 0 2 1;
#X connect 6 0 2 2;
#X connect 7 0 2 3;
#X connect 8 0 2 4;
#X restore 855 424 pd preset_setup;
#N canvas 0 23 456 391 preset_setup 0;
#X obj 71 18 inlet;
#X obj 71 250 outlet;
#N canvas 369 23 508 476 param_setup 0;
#X obj 138 370 f \$0;
#X obj 106 413 list append;
#X obj 106 341 t l b;
#X symbolatom 187 163 10 0 0 0 - - -;
#X symbolatom 187 201 10 0 0 0 - - -;
#X symbolatom 187 238 10 0 0 0 - - -;
#X obj 117 57 bng 15 250 50 0 empty empty empty 17 7 0 10 -262144 -1
-1;
#X obj 117 32 inlet;
#X obj 222 32 inlet;
#X obj 276 32 inlet;
#X obj 330 32 inlet;
#X obj 352 122 symbol p1;
#X obj 352 172 symbol p2;
#X obj 352 222 symbol p3;
#X obj 106 439 outlet;
#X obj 352 272 symbol p4;
#X obj 383 32 inlet;
#X obj 117 80 t b b b b b b b;
#X symbolatom 187 272 10 0 0 0 - - -;
#X obj 106 311 pack s s s s;
#X connect 0 0 1 1;
#X connect 1 0 14 0;
#X connect 2 0 1 0;
#X connect 2 1 0 0;
#X connect 3 0 19 0;
#X connect 4 0 19 1;
#X connect 5 0 19 2;
#X connect 6 0 17 0;
#X connect 7 0 6 0;
#X connect 8 0 11 1;
#X connect 9 0 12 1;
#X connect 10 0 13 1;
#X connect 11 0 3 0;
#X connect 12 0 4 0;
#X connect 13 0 5 0;
#X connect 15 0 18 0;
#X connect 16 0 15 1;
#X connect 17 0 3 0;
#X connect 17 1 4 0;
#X connect 17 2 5 0;
#X connect 17 3 11 0;
#X connect 17 4 12 0;
#X connect 17 5 13 0;
#X connect 17 6 15 0;
#X connect 18 0 19 3;
#X connect 19 0 2 0;
#X restore 71 197 pd param_setup;
#X obj 99 48 loadbang;
#X obj 71 223 list append;
#X msg 146 76 symbol detune;
#X msg 156 106 symbol attack;
#X msg 166 136 symbol release;
#X msg 186 166 symbol cutoff_mul;
#X connect 0 0 2 0;
#X connect 2 0 4 0;
#X connect 3 0 5 0;
#X connect 3 0 6 0;
#X connect 3 0 7 0;
#X connect 3 0 8 0;
#X connect 4 0 1 0;
#X connect 5 0 2 1;
#X connect 6 0 2 2;
#X connect 7 0 2 3;
#X connect 8 0 2 4;
#X restore 855 528 pd preset_setup;
#X msg 855 658 \; \$5-\$1 1.5 \; \$5-\$2 60 \; \$5-\$3 500 \; \$5-\$4
10;
#N canvas 0 23 456 391 preset_setup 0;
#X obj 71 18 inlet;
#X obj 71 250 outlet;
#N canvas 369 23 508 476 param_setup 0;
#X obj 138 370 f \$0;
#X obj 106 413 list append;
#X obj 106 341 t l b;
#X symbolatom 187 163 10 0 0 0 - - -;
#X symbolatom 187 201 10 0 0 0 - - -;
#X symbolatom 187 238 10 0 0 0 - - -;
#X obj 117 57 bng 15 250 50 0 empty empty empty 17 7 0 10 -262144 -1
-1;
#X obj 117 32 inlet;
#X obj 222 32 inlet;
#X obj 276 32 inlet;
#X obj 330 32 inlet;
#X obj 352 122 symbol p1;
#X obj 352 172 symbol p2;
#X obj 352 222 symbol p3;
#X obj 106 439 outlet;
#X obj 352 272 symbol p4;
#X obj 383 32 inlet;
#X obj 117 80 t b b b b b b b;
#X symbolatom 187 272 10 0 0 0 - - -;
#X obj 106 311 pack s s s s;
#X connect 0 0 1 1;
#X connect 1 0 14 0;
#X connect 2 0 1 0;
#X connect 2 1 0 0;
#X connect 3 0 19 0;
#X connect 4 0 19 1;
#X connect 5 0 19 2;
#X connect 6 0 17 0;
#X connect 7 0 6 0;
#X connect 8 0 11 1;
#X connect 9 0 12 1;
#X connect 10 0 13 1;
#X connect 11 0 3 0;
#X connect 12 0 4 0;
#X connect 13 0 5 0;
#X connect 15 0 18 0;
#X connect 16 0 15 1;
#X connect 17 0 3 0;
#X connect 17 1 4 0;
#X connect 17 2 5 0;
#X connect 17 3 11 0;
#X connect 17 4 12 0;
#X connect 17 5 13 0;
#X connect 17 6 15 0;
#X connect 18 0 19 3;
#X connect 19 0 2 0;
#X restore 71 197 pd param_setup;
#X obj 99 48 loadbang;
#X obj 71 223 list append;
#X msg 146 76 symbol detune;
#X msg 156 106 symbol attack;
#X msg 166 136 symbol release;
#X msg 186 166 symbol cutoff_mul;
#X connect 0 0 2 0;
#X connect 2 0 4 0;
#X connect 3 0 5 0;
#X connect 3 0 6 0;
#X connect 3 0 7 0;
#X connect 3 0 8 0;
#X connect 4 0 1 0;
#X connect 5 0 2 1;
#X connect 6 0 2 2;
#X connect 7 0 2 3;
#X connect 8 0 2 4;
#X restore 855 633 pd preset_setup;
#X connect 0 0 7 0;
#X connect 1 0 2 0;
#X connect 2 0 0 0;
#X connect 3 0 1 0;
#X connect 3 1 1 1;
#X connect 4 0 3 0;
#X connect 5 0 3 1;
#X connect 6 0 3 2;
#X connect 9 0 8 0;
#X connect 10 0 11 0;
#X connect 11 0 16 0;
#X connect 11 0 19 0;
#X connect 12 0 13 0;
#X connect 13 0 16 0;
#X connect 13 0 19 1;
#X connect 14 0 15 0;
#X connect 15 0 16 0;
#X connect 15 0 19 2;
#X connect 16 0 19 0;
#X connect 17 0 18 0;
#X connect 18 0 19 3;
#X connect 18 0 16 0;
#X connect 19 0 20 0;
#X connect 20 0 8 0;
#X connect 21 0 10 0;
#X connect 22 0 12 0;
#X connect 23 0 14 0;
#X connect 24 0 17 0;
#X connect 25 0 34 0;
#X connect 25 1 35 0;
#X connect 25 2 36 0;
#X connect 25 3 37 0;
#X connect 25 4 38 0;
#X connect 25 5 39 0;
#X connect 25 6 40 0;
#X connect 25 7 42 0;
#X connect 26 0 25 0;
#X connect 34 0 27 0;
#X connect 35 0 29 0;
#X connect 36 0 31 0;
#X connect 37 0 33 0;
#X connect 38 0 28 0;
#X connect 39 0 30 0;
#X connect 40 0 32 0;
#X connect 42 0 41 0;
#X coords 0 -1 1 1 300 200 1 260 200;
